<?xml version="1.0" standalone="no"?>
<!DOCTYPE svg PUBLIC "-//W3C//DTD SVG 20010904//EN"
 "http://www.w3.org/TR/2001/REC-SVG-20010904/DTD/svg10.dtd">
<svg version="1.0" xmlns="http://www.w3.org/2000/svg"
 width="1536.000000pt" height="1536.000000pt" viewBox="0 0 1536.000000 1536.000000"
 preserveAspectRatio="xMidYMid meet">
<metadata>
Created by potrace 1.11, written by Peter Selinger 2001-2013
</metadata>
<g transform="translate(0.000000,1536.000000) scale(0.100000,-0.100000)"
fill="#000000" stroke="none">
<path d="M1089 11392 c-23 -3 -19 -10 64 -90 50 -48 125 -121 167 -162 42 -41
197 -192 344 -335 148 -143 326 -316 396 -385 71 -69 235 -228 366 -355 130
-126 276 -268 324 -315 48 -47 196 -191 330 -320 133 -129 288 -280 344 -335
57 -55 217 -210 356 -345 139 -135 328 -319 422 -410 l169 -165 -711 -705
c-391 -388 -904 -896 -1140 -1130 -644 -639 -1883 -1868 -2118 -2101 -114
-113 -212 -212 -219 -220 -10 -12 192 -14 1582 -14 1580 0 1594 0 1613 20 10
11 136 133 278 272 142 139 332 323 420 410 89 87 280 273 424 413 144 140
338 330 431 421 93 91 285 278 426 416 142 139 346 337 453 442 l195 191 75
-74 c137 -134 245 -239 505 -491 142 -137 311 -302 376 -365 64 -63 226 -221
360 -350 133 -129 290 -282 349 -340 60 -58 210 -204 335 -325 278 -269 463
-450 574 -558 l83 -82 1717 1 c1490 1 1908 5 2021 18 14 2 56 7 94 11 66 7 81
9 151 20 17 2 48 7 70 11 22 3 66 12 98 19 31 7 60 14 62 14 3 1 6 1 8 2 1 0
11 2 22 3 17 3 54 12 170 40 37 9 102 28 115 33 8 3 26 8 39 10 13 2 37 11 53
19 15 8 28 12 28 8 0 -4 6 -2 13 3 6 6 33 16 60 23 26 7 50 17 53 21 3 5 15 9
28 9 12 0 31 7 42 15 10 8 25 15 33 15 16 0 336 157 403 197 121 73 148 90
241 155 91 64 119 85 151 113 6 6 34 28 61 50 114 90 317 293 475 474 14 17
103 117 165 186 15 17 47 52 71 78 24 26 44 50 44 53 0 6 -40 45 -328 322 -95
92 -219 212 -276 267 -56 55 -201 195 -321 310 -119 116 -253 245 -297 288
-43 42 -83 77 -89 77 -5 0 -9 4 -9 9 0 8 -34 45 -92 99 l-25 23 -71 -73 c-39
-40 -117 -122 -174 -182 -222 -235 -371 -378 -427 -410 -9 -5 -18 -12 -21 -15
-16 -20 -135 -89 -235 -139 -120 -59 -329 -127 -425 -138 -19 -2 -48 -6 -65
-9 -16 -3 -64 -7 -105 -10 -41 -2 -77 -5 -80 -5 -31 -6 -238 4 -330 16 -25 3
-56 8 -70 9 -14 2 -45 8 -70 14 -25 7 -54 13 -65 15 -52 10 -163 48 -259 89
-111 47 -296 148 -317 173 -6 8 -15 14 -20 14 -8 0 -43 27 -75 58 -7 6 -15 12
-18 12 -9 0 -160 154 -196 199 -19 24 -42 52 -52 62 -9 9 -14 20 -11 23 4 3 2
6 -4 6 -5 0 -23 23 -39 51 -16 28 -39 67 -51 87 -13 20 -27 47 -33 60 -5 13
-22 49 -36 80 -74 161 -119 345 -139 565 -2 26 -7 52 -10 57 -3 6 -3 10 2 10
6 0 9 102 2 120 -1 3 0 10 1 15 6 30 5 65 -3 65 -4 0 -5 5 -2 11 4 5 9 29 11
52 12 121 23 184 58 322 2 6 8 23 14 38 7 16 12 34 12 41 0 7 6 26 14 42 8 16
16 38 18 49 2 11 5 22 8 25 3 3 25 43 48 90 78 157 152 262 266 380 100 103
285 250 315 250 6 0 11 4 11 9 0 5 9 13 21 16 11 4 47 22 80 40 32 19 59 32
59 29 0 -3 10 1 23 8 12 7 36 18 52 24 63 24 151 56 165 59 8 1 35 9 60 16 57
16 48 14 100 23 25 5 54 10 65 12 52 11 188 23 275 23 59 1 65 1 150 0 107 0
224 -17 380 -54 32 -8 143 -45 178 -61 93 -40 242 -118 242 -125 0 -5 5 -9 11
-9 16 0 95 -56 187 -132 l82 -69 715 717 715 717 -59 56 c-94 90 -198 182
-250 221 -19 14 -39 30 -45 35 -6 6 -32 25 -58 43 -25 18 -54 39 -62 48 -9 8
-16 12 -16 7 0 -4 -4 -3 -8 3 -6 10 -66 51 -117 80 -11 6 -58 34 -105 61 -111
64 -352 182 -382 187 -7 1 -22 7 -33 13 -33 17 -373 129 -417 137 -7 1 -22 5
-33 9 -11 3 -31 8 -45 11 -14 2 -52 11 -85 19 -33 8 -76 18 -95 21 -19 3 -46
9 -60 12 -14 3 -36 7 -50 9 -14 2 -41 6 -60 9 -19 3 -53 8 -75 10 -22 3 -49 7
-60 9 -11 3 -58 8 -105 11 -47 4 -116 10 -155 13 -73 6 -4604 11 -4641 5 -20
-4 -269 -247 -1296 -1267 -191 -190 -352 -345 -358 -345 -5 0 -10 5 -10 11 0
5 -5 7 -10 4 -6 -4 -371 354 -812 795 l-802 802 -1615 1 c-889 1 -1628 1
-1642 -1z m7316 -2472 c-3 -5 -8 -18 -10 -27 -2 -10 -10 -37 -19 -60 -8 -24
-13 -43 -9 -43 3 0 1 -6 -4 -12 -9 -11 -36 -110 -48 -174 -2 -10 -4 -19 -5
-19 -2 0 -8 -23 -15 -60 -3 -16 -10 -50 -15 -75 -11 -51 -40 -228 -38 -238 0
-4 0 -9 -1 -12 -1 -3 -4 -25 -6 -50 -3 -25 -7 -65 -10 -90 -5 -37 -8 -146 -15
-508 0 -1 -136 133 -301 299 l-302 302 249 244 c382 373 547 533 551 533 2 0
1 -4 -2 -10z"/>
</g>
</svg>
