<?xml version="1.0" standalone="no"?>
<!DOCTYPE svg PUBLIC "-//W3C//DTD SVG 20010904//EN"
 "http://www.w3.org/TR/2001/REC-SVG-20010904/DTD/svg10.dtd">
<svg version="1.0" xmlns="http://www.w3.org/2000/svg"
 width="700.000000pt" height="700.000000pt" viewBox="0 0 700.000000 700.000000"
 preserveAspectRatio="xMidYMid meet">
<metadata>
Created by potrace 1.11, written by Peter Selinger 2001-2013
</metadata>
<g transform="translate(0.000000,700.000000) scale(0.100000,-0.100000)"
fill="#000000" stroke="none">
<path d="M1300 5227 c-63 -16 -74 -38 -40 -77 24 -28 24 -29 0 -60 -43 -55
-15 -189 53 -253 36 -34 44 -55 51 -138 6 -76 18 -122 52 -192 18 -38 25 -42
98 -52 21 -3 42 -8 47 -11 15 -9 10 -41 -12 -83 -25 -48 -22 -75 9 -79 14 -2
28 -15 35 -30 6 -15 26 -48 44 -73 18 -26 33 -51 33 -57 0 -6 3 -12 8 -14 4
-1 18 -25 32 -53 34 -67 57 -101 109 -158 l44 -49 -24 -21 c-40 -36 -97 -77
-107 -77 -6 0 -12 -4 -14 -8 -3 -9 -45 -38 -193 -136 -55 -36 -111 -74 -125
-83 -41 -27 -160 -146 -160 -160 0 -7 -3 -13 -7 -14 -8 -1 -20 -3 -80 -14 -18
-3 -55 -25 -82 -49 -28 -23 -77 -60 -108 -82 -32 -21 -78 -54 -103 -73 -25
-18 -56 -39 -70 -45 -21 -9 -71 -47 -202 -151 -9 -8 -29 -22 -45 -31 -15 -10
-46 -33 -68 -50 -60 -48 -177 -114 -201 -114 -44 0 -81 -65 -87 -155 -1 -16
-6 -33 -12 -37 -7 -5 -6 -14 3 -28 6 -11 12 -27 12 -35 0 -9 5 -21 10 -28 37
-43 204 -277 214 -297 6 -14 18 -32 26 -40 8 -8 26 -37 40 -63 14 -26 30 -47
36 -47 32 0 85 -41 110 -86 15 -27 39 -29 71 -6 16 10 57 29 92 41 35 13 97
43 137 66 40 24 75 41 78 37 3 -3 6 -1 6 5 0 5 33 32 72 59 74 50 204 140 247
172 13 9 34 24 46 32 13 8 53 39 90 68 38 28 71 52 75 52 4 0 18 20 31 45 17
33 34 49 62 60 27 11 42 25 52 49 13 30 19 34 54 34 42 1 74 15 161 70 155
100 240 160 283 203 55 53 109 73 150 55 33 -14 217 -259 217 -289 0 -8 27
-43 61 -78 33 -35 73 -82 87 -104 32 -48 73 -87 127 -122 48 -31 105 -90 105
-109 0 -18 37 -26 92 -20 40 5 50 2 79 -23 37 -32 53 -31 87 8 l23 26 -3 -35
c-2 -29 -7 -36 -28 -38 -58 -7 -90 -24 -96 -49 -9 -36 16 -53 62 -43 19 4 66
27 105 51 66 40 72 42 84 25 8 -11 35 -20 73 -26 33 -4 69 -13 80 -19 32 -17
70 -13 82 8 5 11 10 39 10 63 0 27 8 52 20 68 24 30 27 102 5 124 -19 19 -19
31 2 51 22 23 5 49 -33 52 -16 0 -34 2 -40 2 -6 1 -19 20 -29 44 -10 23 -33
60 -50 82 -18 22 -37 50 -44 62 -6 13 -26 30 -44 39 -31 16 -97 78 -97 92 0 4
-18 27 -40 52 -21 25 -44 54 -50 65 -6 11 -56 68 -112 125 -117 121 -178 196
-178 216 0 8 -9 32 -20 54 -30 59 -26 74 22 96 23 10 62 36 86 57 24 20 71 56
105 79 34 22 92 65 130 95 37 30 88 60 114 68 25 8 60 27 77 44 17 16 63 46
101 66 43 22 90 58 122 91 32 34 65 59 87 65 18 5 53 28 77 50 24 22 55 49 70
60 15 10 30 30 33 44 6 25 9 26 51 19 44 -6 45 -6 60 29 16 39 59 87 77 87 6
0 19 -7 28 -15 22 -20 47 -10 65 26 31 59 16 76 -46 54 -39 -14 -45 -14 -55 0
-14 19 -30 19 -38 0 -7 -20 -54 -19 -94 1 -35 17 -112 91 -112 107 0 12 -27
35 -57 47 -13 5 -23 17 -23 26 0 17 28 16 122 -2 30 -5 39 -3 44 10 9 23 -8
38 -47 42 -40 5 -46 11 -33 32 14 22 97 81 106 75 10 -5 35 36 43 69 6 23 3
28 -18 34 -31 7 -47 -1 -47 -25 0 -24 -22 -41 -58 -47 -22 -4 -37 2 -57 21
-32 28 -36 30 -53 13 -18 -18 -15 -42 8 -56 20 -12 27 -32 13 -32 -5 0 -31 22
-58 48 -66 62 -90 60 -85 -9 1 -16 -5 -29 -15 -33 -25 -9 -35 2 -25 28 19 51
-51 111 -117 98 -26 -5 -66 -40 -58 -51 6 -11 -23 -36 -31 -28 -7 7 -110 -30
-173 -62 -40 -21 -42 -25 -39 -59 l3 -37 -45 4 c-101 9 -105 8 -102 -19 2 -20
-4 -28 -30 -39 -107 -45 -221 -109 -267 -150 -13 -11 -29 -21 -35 -22 -39 -3
-70 -12 -83 -25 -8 -7 -21 -14 -28 -14 -8 0 -16 -8 -20 -17 -9 -30 -89 -82
-171 -114 -67 -26 -82 -28 -106 -18 -22 9 -30 20 -34 50 -6 34 -11 40 -43 49
-20 5 -41 10 -47 10 -18 0 -25 28 -18 76 4 35 2 47 -15 65 -12 13 -21 30 -21
39 0 9 -15 32 -32 51 -18 20 -45 57 -60 82 -15 26 -40 53 -55 60 -36 15 -52
36 -53 65 0 44 -28 91 -69 117 -23 14 -41 30 -41 37 0 6 -25 37 -55 69 -38 39
-55 66 -55 83 0 57 -82 176 -121 176 -6 0 -38 16 -70 36 -63 40 -128 50 -199
31z m2277 -599 c-3 -8 -6 -5 -6 6 -1 11 2 17 5 13 3 -3 4 -12 1 -19z"/>
<path d="M3820 4956 c-9 -12 -8 -22 5 -50 30 -62 62 -52 72 24 l6 40 -35 0
c-20 0 -41 -6 -48 -14z"/>
<path d="M3980 4931 c0 -18 17 -38 25 -30 12 14 8 44 -7 47 -13 2 -18 -3 -18
-17z"/>
<path d="M6259 4926 c-2 -2 -56 -7 -118 -10 -96 -6 -117 -10 -128 -26 -9 -13
-21 -17 -36 -13 -58 13 -126 -3 -165 -40 -14 -13 -38 -23 -60 -24 -20 -1 -44
-3 -52 -5 -40 -10 -97 -33 -125 -49 -18 -11 -64 -30 -104 -44 -92 -31 -174
-73 -253 -129 -35 -25 -104 -70 -155 -101 -51 -30 -104 -71 -118 -90 -16 -20
-32 -32 -41 -28 -8 3 -17 -5 -24 -21 -5 -14 -17 -26 -27 -27 -62 -2 -66 -6
-109 -105 -18 -42 -37 -81 -42 -86 -5 -5 -29 -12 -53 -14 -89 -10 -90 -11 -85
-50 4 -28 0 -41 -17 -58 -16 -16 -22 -35 -23 -69 0 -61 -12 -73 -51 -51 -36
21 -63 13 -63 -18 0 -13 -9 -36 -20 -53 -11 -16 -20 -41 -20 -54 0 -21 -3 -23
-34 -17 -29 6 -34 4 -40 -16 -3 -13 -36 -61 -73 -108 -65 -82 -67 -87 -68
-145 -1 -33 -6 -69 -12 -80 -30 -58 -46 -135 -38 -192 4 -32 8 -71 9 -88 1
-16 5 -37 8 -45 4 -8 14 -51 24 -95 24 -115 47 -179 94 -270 23 -44 43 -88 46
-99 2 -10 23 -36 46 -58 55 -50 104 -98 147 -144 42 -45 197 -147 230 -152 14
-2 38 -14 54 -28 15 -13 38 -25 50 -25 12 -1 31 -3 42 -4 11 -1 51 -6 89 -9
38 -4 75 -11 81 -16 6 -5 41 -7 78 -4 49 4 75 1 101 -11 32 -16 36 -15 75 4
59 31 151 49 276 55 61 2 124 9 142 14 17 6 33 8 36 6 2 -2 17 2 32 10 24 13
92 26 155 30 8 1 40 15 70 33 30 17 81 39 113 48 32 9 61 23 64 31 3 9 -7 28
-23 45 -26 27 -26 29 -7 29 11 0 32 -9 46 -20 30 -24 41 -25 58 -4 11 13 8 20
-20 46 -26 25 -30 32 -19 45 10 13 13 13 23 0 16 -22 72 -31 106 -16 61 25
162 150 145 178 -3 4 1 16 8 27 13 17 17 17 41 4 23 -12 29 -12 53 3 15 10 42
25 59 34 18 9 35 24 38 33 6 18 -20 90 -33 90 -4 0 -23 14 -42 30 l-35 30 89
-6 c102 -8 105 -6 99 69 -6 70 -16 85 -61 89 -31 3 -37 6 -34 25 3 21 -30 53
-55 53 -18 0 -16 -50 3 -71 26 -29 9 -37 -62 -32 -62 4 -66 3 -62 -14 3 -11
-1 -28 -8 -38 -8 -10 -14 -27 -14 -37 0 -23 -26 -36 -72 -36 -31 0 -40 5 -51
27 -6 14 -22 27 -34 29 -18 3 -24 -4 -33 -39 -6 -23 -18 -48 -26 -56 -8 -8
-14 -31 -14 -51 l0 -37 -19 41 c-10 23 -25 43 -32 46 -20 7 -166 0 -218 -11
-25 -5 -50 -7 -56 -4 -7 2 -32 -7 -56 -20 -71 -40 -331 -110 -455 -123 -41 -5
-58 -3 -64 6 -7 11 -11 10 -23 -1 -11 -12 -45 -15 -164 -13 -199 2 -243 15
-328 98 -68 67 -132 154 -142 195 -3 14 -13 36 -21 49 -12 19 -14 49 -9 165 4
78 8 149 10 157 2 8 7 33 12 55 9 49 51 138 79 169 12 12 41 47 66 77 87 105
123 138 188 173 37 19 77 44 90 56 12 11 22 17 22 13 1 -4 8 1 18 13 9 11 37
32 62 47 25 14 60 42 78 62 24 24 42 35 63 35 15 0 54 12 86 26 32 14 78 32
102 41 24 8 60 27 81 42 21 15 57 33 81 40 24 8 62 22 84 32 95 42 306 112
375 125 41 7 93 21 115 30 32 13 76 18 210 20 94 1 173 2 178 3 4 1 7 21 7 45
0 47 12 60 43 44 15 -8 17 -4 17 30 0 35 3 40 25 40 14 0 31 5 39 11 18 15 34
108 27 154 -2 13 -17 8 -55 -18 -20 -14 -38 -25 -40 -25 -2 0 -9 19 -15 43
-13 53 -46 97 -71 97 -13 0 -26 -15 -39 -45 -15 -33 -25 -45 -42 -45 -20 0
-21 1 -5 24 20 32 13 51 -30 71 -45 21 -232 53 -245 41z"/>
<path d="M4114 4887 c-3 -9 -3 -25 0 -34 6 -15 8 -15 24 0 15 16 15 18 0 34
-16 15 -18 15 -24 0z"/>
<path d="M3607 4860 c-6 -25 20 -50 29 -26 7 19 -1 46 -15 46 -5 0 -11 -9 -14
-20z"/>
<path d="M4130 4774 c1 -26 79 -72 100 -59 13 8 13 42 1 49 -17 11 -101 19
-101 10z"/>
<path d="M4192 4533 c1 -28 -3 -48 -10 -51 -7 -2 -12 -9 -12 -16 0 -15 42 -56
57 -56 14 0 9 103 -6 143 -16 42 -31 32 -29 -20z"/>
<path d="M4025 4550 c-4 -7 -3 -16 2 -21 12 -12 45 0 40 15 -5 15 -34 19 -42
6z"/>
<path d="M4130 4546 c0 -8 4 -17 9 -20 11 -7 33 18 24 27 -12 12 -33 7 -33 -7z"/>
<path d="M3918 4454 c-16 -8 -28 -20 -28 -26 0 -11 8 -18 62 -59 l27 -20 20
20 c26 26 17 55 -24 81 -27 17 -33 17 -57 4z"/>
<path d="M6517 3123 c-4 -3 -2 -12 4 -19 12 -15 49 -2 49 16 0 11 -43 14 -53
3z"/>
<path d="M6195 3010 c-3 -5 -1 -19 5 -30 9 -17 14 -18 31 -9 20 10 20 11 3 30
-19 21 -30 24 -39 9z"/>
<path d="M6537 2674 c-13 -13 -7 -24 14 -24 11 0 19 5 17 12 -5 14 -22 21 -31
12z"/>
<path d="M3020 2191 c-8 -3 -16 -11 -17 -18 -3 -15 33 -36 47 -28 25 16 -2 58
-30 46z"/>
<path d="M3387 2114 c-4 -4 -7 -16 -7 -27 0 -10 -9 -30 -20 -44 -23 -29 -27
-73 -7 -73 19 0 60 46 65 73 9 50 7 72 -8 75 -9 1 -19 0 -23 -4z"/>
<path d="M3475 2050 c-8 -13 20 -24 41 -16 20 8 9 26 -16 26 -10 0 -22 -5 -25
-10z"/>
<path d="M3234 1997 c-3 -9 -3 -25 0 -34 6 -15 8 -15 24 0 15 16 15 18 0 34
-16 15 -18 15 -24 0z"/>
<path d="M3364 1915 c-8 -20 2 -44 21 -52 18 -6 65 15 65 30 0 30 -76 50 -86
22z"/>
<path d="M3302 1864 c-25 -17 -20 -37 14 -53 31 -14 44 -7 44 24 0 33 -31 49
-58 29z"/>
</g>
</svg>
