<svg id="Layer_1" data-name="Layer 1" xmlns="http://www.w3.org/2000/svg" viewBox="0 0 705.68 468.54">
  <defs>
    <style>
      .cls-1{fill:#fff}
    </style>
  </defs>
  <path class="cls-1" d="M273.81 599.32a3.85 3.85 0 0 0-3-1.12h-9.14a6 6 0 0 0-3.5 1.12 5 5 0 0 0-2.07 2.85l-4.17 15.58a14.53 14.53 0 0 1-5.25 8 17 17 0 0 1-6.9 3.16l7.18-26.78a2.91 2.91 0 0 0-.54-2.85 3.71 3.71 0 0 0-2.91-1.12h-9.14a6.14 6.14 0 0 0-3.62 1.12 5 5 0 0 0-2.07 2.85l-8.38 31.26q-.79 3 2.41 3.87 1.78.41 5.23.86a62 62 0 0 0 8.18.46 57.83 57.83 0 0 0 11.34-1.12 33.68 33.68 0 0 0 10.27-3.77 25.34 25.34 0 0 0 12.48-16l4.17-15.58a2.89 2.89 0 0 0-.57-2.79zm96.65.81a15.25 15.25 0 0 0-6.84-3 51.47 51.47 0 0 0-9.93-.82 94.75 94.75 0 0 0-9.47.56c-3.63.38-7 .87-10.07 1.48a7 7 0 0 0-2.88 1.43 4.68 4.68 0 0 0-1.6 2.44l-8.38 31.26a2.89 2.89 0 0 0 .54 2.85 3.85 3.85 0 0 0 3 1.12H334a5.81 5.81 0 0 0 3.53-1.22 5.15 5.15 0 0 0 2-2.75l7.67-28.61a17.53 17.53 0 0 1 4.7-.72c1.35 0 2.17.17 2.48.51a2.3 2.3 0 0 1 1.11 2 13.22 13.22 0 0 1-.51 3.26l-6.31 23.52a2.89 2.89 0 0 0 .54 2.85 3.7 3.7 0 0 0 2.91 1.12h9.14a6.17 6.17 0 0 0 3.58-1.17 5 5 0 0 0 2.11-2.8l6.31-23.52q1.74-6.32-2.8-9.79zm25.75 5.87h13.65a6.16 6.16 0 0 0 3.62-1.12 4.93 4.93 0 0 0 2-2.75 2.89 2.89 0 0 0-.55-2.85 3.85 3.85 0 0 0-3-1.12h-13.62l1-3.87a2.88 2.88 0 0 0-.55-2.85 3.69 3.69 0 0 0-2.9-1.12h-9.14a6.17 6.17 0 0 0-3.63 1.12 5 5 0 0 0-2.07 2.85l-8.37 31.26q-1.63 6.1 2.81 9.87a15.88 15.88 0 0 0 7.73 3.06 80.93 80.93 0 0 0 11.56.71q1.79 0 4-.15c1.49-.1 3-.3 4.58-.46 2.25-.23 5.31-.84 5.31-.84 2.26-.75 3.62-2 4.1-3.76 0-.07 0-.44.06-1.12a2.63 2.63 0 0 0-1.47-2.3 4.67 4.67 0 0 0-3.28-.35 35.26 35.26 0 0 1-4.4.73 57.21 57.21 0 0 1-7 .41 7.18 7.18 0 0 1-4.75-1.32 2.46 2.46 0 0 1-1.08-1.53 5.43 5.43 0 0 1 .14-2.95zm69.69-6.72a3.83 3.83 0 0 0-3-1.12h-9.14a5.93 5.93 0 0 0-3.5 1.12 5 5 0 0 0-2.08 2.85l-7.66 28.61a17.89 17.89 0 0 1-4.7.71c-1.82 0-2.92-.47-3.3-1.42s-.3-2.45.25-4.48l6.23-23.38a2.89 2.89 0 0 0-.54-2.85 3.69 3.69 0 0 0-2.9-1.12h-9.14a6.17 6.17 0 0 0-3.63 1.12 5 5 0 0 0-2.07 2.85l-6.27 23.42q-1.64 6.1 2.81 9.87a15.15 15.15 0 0 0 6.84 3.06 52.21 52.21 0 0 0 9.93.81 92 92 0 0 0 9.47-.56q5.43-.56 10.07-1.47a7.1 7.1 0 0 0 2.88-1.43 4.68 4.68 0 0 0 1.6-2.44l8.38-31.26a2.89 2.89 0 0 0-.53-2.85zm44.77 3.48c.33-.68.51-1.06.53-1.12 1.11-2.62-5.23-4.38-5.23-4.38-.9-.2-1.73-.37-2.48-.51a23.18 23.18 0 0 0-6.4-.53 79.33 79.33 0 0 0-11.85.82 27.89 27.89 0 0 0-9.48 3 15.47 15.47 0 0 0-8.08 9.78l-6.3 23.52a2.87 2.87 0 0 0 .54 2.85 3.85 3.85 0 0 0 3 1.12h9.14a5.79 5.79 0 0 0 3.53-1.22 5.17 5.17 0 0 0 2.05-2.75l6.3-23.52a9.73 9.73 0 0 1 1.43-2.91 5.88 5.88 0 0 1 1.86-1.62 7.28 7.28 0 0 1 2.4-.77 43.89 43.89 0 0 1 5.69-.39 38 38 0 0 1 7.13 1.32 3 3 0 0 0 1 .11 5.48 5.48 0 0 0 5.22-2.76zm46.95 26.74a5.09 5.09 0 0 0-3.22 1.14 5.31 5.31 0 0 0-1.9 2.82 3.28 3.28 0 0 0 .36 2.92 3 3 0 0 0 2.61 1.14 4.79 4.79 0 0 0 3.15-1.25 5.55 5.55 0 0 0 1.9-2.81 3.17 3.17 0 0 0-.39-2.82 2.92 2.92 0 0 0-2.51-1.1zm42.53.47a3.55 3.55 0 0 0-2.88-.37q-4.11.95-7 1.36a44.65 44.65 0 0 1-6.21.41 5.51 5.51 0 0 1-4.12-1.35 2.45 2.45 0 0 1-.88-1.56 6.5 6.5 0 0 1 .23-3l4.3-16.05a11.84 11.84 0 0 1 1.37-3 6 6 0 0 1 1.7-1.67 6.35 6.35 0 0 1 2.14-.78c.8-.14 1.71-.31 2.74-.52a35.6 35.6 0 0 1 6 .52c2 .35 4.06.8 6.21 1.36a2.34 2.34 0 0 0 .91.1 4.93 4.93 0 0 0 4.64-2.92q.48-1 .51-1.14a2.91 2.91 0 0 0-1.7-3.76l-2.73-.72c-.77-.21-1.49-.39-2.15-.52a47.83 47.83 0 0 0-9.34-.95 60.63 60.63 0 0 0-10.43.84 23.06 23.06 0 0 0-8.45 3.13 16.37 16.37 0 0 0-7.48 10l-4.3 16.05q-1.66 6.25 2.09 10.12a12.46 12.46 0 0 0 6.67 3.12 60.55 60.55 0 0 0 10.12.73c1 0 2.22-.05 3.53-.16s2.66-.26 4-.46 2.73-.44 4.09-.68 2.58-.51 3.7-.78a5.64 5.64 0 0 0 3.74-3.86c0-.07 0-.45.1-1.15a2.62 2.62 0 0 0-1.12-2.31zm40.91-33.77a77.24 77.24 0 0 0-11.18-.68l2.71-10.11a3.28 3.28 0 0 0-.36-2.92 2.92 2.92 0 0 0-2.51-1.14h-8a5.1 5.1 0 0 0-3.23 1.14 5.46 5.46 0 0 0-1.93 2.92l-12.87 48a3.28 3.28 0 0 0 .36 2.92 3 3 0 0 0 2.61 1.14h8a4.79 4.79 0 0 0 3.15-1.25 5.62 5.62 0 0 0 1.9-2.81l7.84-29.29c.82-.21 1.6-.38 2.33-.52a10.47 10.47 0 0 1 1.94-.21c1.1 0 1.79.18 2 .52a2.34 2.34 0 0 1 .9 2.09 14.94 14.94 0 0 1-.58 3.33l-6.45 24.08a3.31 3.31 0 0 0 .37 2.92 2.9 2.9 0 0 0 2.5 1.14h8a5.09 5.09 0 0 0 3.19-1.19 5.43 5.43 0 0 0 2-2.87l6.45-24.08q1.74-6.45-2.11-10a12.43 12.43 0 0 0-7.03-3.09zm-646.64 3.93a16 16 0 0 0-8.19-3.1 103 103 0 0 0-12.76-.67l2.64-9.87a2.89 2.89 0 0 0-.54-2.85 3.69 3.69 0 0 0-2.9-1.12h-9.14a6.17 6.17 0 0 0-3.63 1.12 5 5 0 0 0-2.07 2.85l-12.58 46.94a2.87 2.87 0 0 0 .55 2.85 3.83 3.83 0 0 0 3 1.12h9.2a5.79 5.79 0 0 0 3.53-1.22 5.22 5.22 0 0 0 2-2.75l7.66-28.61c.93-.21 1.8-.38 2.63-.51a13.37 13.37 0 0 1 2.18-.21c1.27 0 2.05.17 2.36.51a2.3 2.3 0 0 1 1.12 2 12.84 12.84 0 0 1-.52 3.26l-6.3 23.52a2.89 2.89 0 0 0 .54 2.85 3.69 3.69 0 0 0 2.9 1.12h9.14a6.15 6.15 0 0 0 3.58-1.17A5 5 0 0 0-9 633.43l6.3-23.52q1.7-6.31-2.88-9.78zm123.93 0a16 16 0 0 0-8.19-3.1 103 103 0 0 0-12.76-.67l2.64-9.87a2.89 2.89 0 0 0-.54-2.85 3.69 3.69 0 0 0-2.9-1.12h-9.14a6.17 6.17 0 0 0-3.63 1.12 5 5 0 0 0-2.07 2.85l-12.57 46.94a2.89 2.89 0 0 0 .54 2.85 3.83 3.83 0 0 0 3 1.12h9.14a5.79 5.79 0 0 0 3.53-1.22 5.17 5.17 0 0 0 2-2.75l7.67-28.61c.92-.21 1.8-.38 2.62-.51a13.37 13.37 0 0 1 2.19-.21c1.27 0 2 .17 2.36.51a2.3 2.3 0 0 1 1.12 2 12.84 12.84 0 0 1-.52 3.26l-6.3 23.52a2.89 2.89 0 0 0 .54 2.85 3.7 3.7 0 0 0 2.91 1.12h9.14a6.14 6.14 0 0 0 3.57-1.17 5 5 0 0 0 2.12-2.8l6.3-23.52q1.77-6.27-2.77-9.74zm-96.76-.76a3.77 3.77 0 0 0-2.95-1.17H9.5a6 6 0 0 0-3.5 1.12 5 5 0 0 0-2.07 2.85l-8.37 31.26a2.89 2.89 0 0 0 .54 2.85A3.7 3.7 0 0 0-1 637.4h9.13a6.15 6.15 0 0 0 3.58-1.17 5 5 0 0 0 2.12-2.8l8.37-31.26a2.82 2.82 0 0 0-.61-2.8zM8 588.37c0 3.33 4.14 6 9.24 6s9.24-2.71 9.24-6-4.13-6-9.24-6S8 585 8 588.37zm-62.11-380.19a9.68 9.68 0 0 0 1.56 2.51 22.58 22.58 0 0 0 2.21 2.31 25.38 25.38 0 0 0 2.59 2c.92.65 1.88 1.27 2.88 1.84s2 1.12 3.11 1.63 2.07 1 3 1.44 1.75.87 2.5 1.27l8.1 3.35q3.93 1.62 7.62 3.11c2.46 1 4.91 2 7.37 2.93s4.91 1.89 7.36 2.8 4.93 1.82 7.44 2.72 5 1.82 7.58 2.72 5.22 1.83 8 2.76 5.64 1.89 8.62 2.86c0 0-69.78-4.79-72.7 2.58a5.55 5.55 0 0 0-.22 2.3 8.28 8.28 0 0 0 1.21 3.79 13.32 13.32 0 0 0 3.13 3.47 33.25 33.25 0 0 0 4.65 3.1 46.61 46.61 0 0 0 5.71 2.63q3.12 1.2 6.59 2.25t7.26 1.94c2.55.6 5 1.15 7.46 1.64s4.8.94 7.12 1.33 4.52.73 6.63 1 4.09.54 6 .73 3.52.36 4.88.47 2.46.2 3.3.24c5.12.42 4.75 1.37 3 1.95-99.35 33.1-40.3 33.56-40.3 33.56 21.77 1 31.55-2.16 34.29-3.3-12.22 5.7-21.66 17.23-21.66 17.23l-3.9 4.75q-2 2.5-3.87 5.22c-1.22 1.81-2.38 3.7-3.46 5.65a24.68 24.68 0 0 0-2.35 5.86 19.18 19.18 0 0 0-.55 5.81 10 10 0 0 0 .4 2.19 13.77 13.77 0 0 0 1 2.35 3.74 3.74 0 0 0 1.78 1.83 6.74 6.74 0 0 0 3.12.44 30.55 30.55 0 0 0 4.23-.55 27.66 27.66 0 0 0 4-1.13c1.27-.47 2.56-1 3.86-1.49S-1 351.2.33 350.64s2.65-1.1 4-1.62c0 0 20.47-8.82 29-10.17q-2.66 2.81-5.25 5.73c-1.74 1.95-3.45 3.95-5.16 6s-3.31 4.12-4.83 6.24-2.94 4.27-4.27 6.46a63.58 63.58 0 0 0-3.56 6.72 62.45 62.45 0 0 0-2.68 7A41.54 41.54 0 0 0 6 384.17a39.64 39.64 0 0 0-.23 7.31c0 .61.08 1.23.15 1.84s.14 1.22.22 1.83c0 0 .46 12.61 24.5-6.21a14.86 14.86 0 0 1-1.27 7.06l-1.56 3.43c-.53 1.15-1.08 2.32-1.63 3.5s-1.1 2.36-1.63 3.56-1 2.41-1.54 3.62a17.14 17.14 0 0 0-1.27 7.61 13.59 13.59 0 0 0 1.84 6.5 9.09 9.09 0 0 0 4.56 3.69 33.16 33.16 0 0 0 6.48 1.73 47.26 47.26 0 0 0 7.58.6c0 .35.07.81.16 1.38s.21 1.24.36 2 .29 1.58.41 2.39.24 1.63.35 2.46.21 1.65.34 2.45.26 1.6.41 2.39.27 1.44.36 2a11.77 11.77 0 0 1 .14 1.18 17.7 17.7 0 0 0 .92 2.95 3.82 3.82 0 0 0 1.07 1.56 3.5 3.5 0 0 0 1.41.62 6.85 6.85 0 0 0 1.92.11 10.14 10.14 0 0 0 1.4-.18c.51-.1 1.08-.23 1.69-.4a4.87 4.87 0 0 1 2-.09 9 9 0 0 1 2.39.75 7.85 7.85 0 0 1 2.36 1.41 4.64 4.64 0 0 1 1.28 1.94 12.39 12.39 0 0 1 .57 2.31A16 16 0 0 1 62 460v5.29a9.3 9.3 0 0 0 .3 2.43 6.91 6.91 0 0 0 .89 2 5.25 5.25 0 0 0 1.7 1.52 10 10 0 0 0 2.68 1 14.62 14.62 0 0 0 3.93.26 39.09 39.09 0 0 0 5.43-.69c0 .45.1 1 .22 1.81s.3 1.69.52 2.78a31.19 31.19 0 0 0 .87 3.31c.35 1.13.77 2.27 1.25 3.42a28.36 28.36 0 0 0 1.65 3.31 25.5 25.5 0 0 0 2 2.95 7.7 7.7 0 0 0 2.44 2.1 6.21 6.21 0 0 0 2.89.75h1.25l2.19-.13 2.18-.13h1.21a1.35 1.35 0 0 1 .51.07 10.32 10.32 0 0 0 .84 1.54 8.8 8.8 0 0 1 .57 1.15c.18.43.32.77.42 1a2.12 2.12 0 0 1 .14.52 14.58 14.58 0 0 0 2.39 3.89 13.84 13.84 0 0 0 3.49 2.89 29.45 29.45 0 0 1 3.8 2.68 28.67 28.67 0 0 1 3.28 3.24c1.35 1.6 2.64 3.2 3.89 4.82s2.44 3.26 3.58 4.91a51.24 51.24 0 0 0 3.72 4.76 54.39 54.39 0 0 0 4.33 4.4c1.88 1.74 6.29 6.19 10.74 10.58 3.71 3.65 7.42 7.23 9.73 9.19a11 11 0 0 0 1.06.85 1.83 1.83 0 0 0 .16.13l.16.11a5.32 5.32 0 0 0 .71.41 16.87 16.87 0 0 0 8.3 1.86h33.89a21.47 21.47 0 0 0 13.09-4.52c4-3 6.56-6.42 7.57-10.2l28.42-106c3.43-.76 6.67-1.38 9.75-1.89a51.2 51.2 0 0 1 8.12-.76c4.69 0 7.6.64 8.73 1.89a8.5 8.5 0 0 1 4.14 7.55 48.15 48.15 0 0 1-1.9 11.95l-23.37 87.18c-1.14 4.28-.48 7.8 2 10.57s6.07 4.15 10.77 4.15h33.88a22.78 22.78 0 0 0 13.27-4.34q6.21-4.32 7.83-10.38l2-7.33A33.14 33.14 0 0 0 326 543.72Q336.12 552 351.38 555t36.82 3a349.44 349.44 0 0 0 35.1-2q20.13-2.09 37.32-5.48a26.14 26.14 0 0 0 10.66-5.28 18.5 18.5 0 0 0 4.26-5c.25-.14.5-.28.75-.44a19.65 19.65 0 0 0 2.07-1.47c.67-.55 1.31-1.11 1.9-1.68s1.14-1.15 1.65-1.74.94-1.1 1.27-1.53a11.31 11.31 0 0 0 .77-1 21.63 21.63 0 0 0 2.68 2.19 7.75 7.75 0 0 0 2.2 1.12 5.51 5.51 0 0 0 1.8.27 3.28 3.28 0 0 0 1.45-.37 4.93 4.93 0 0 0 1.2-.92 7.29 7.29 0 0 0 1-1.38l.94-1.61 1-1.61a12.74 12.74 0 0 1 1-1.48 11.21 11.21 0 0 1 1.14-1.23 3.35 3.35 0 0 1 1.38-.76 4.71 4.71 0 0 1 1.78-.09 5.31 5.31 0 0 1 1.55.32 2.92 2.92 0 0 1 1.06.72c.27.3.52.57.76.8s.48.41.69.56a4 4 0 0 0 1.08.56 2 2 0 0 0 1 .08 2.79 2.79 0 0 0 1.13-.59 13 13 0 0 0 1.55-1.5c.11-.16.27-.38.51-.67s.53-.65.89-1.08.72-.87 1.07-1.32.72-.91 1.07-1.38.7-.94 1.06-1.39l1.08-1.32c.36-.43.67-.8.92-1.12s.44-.58.58-.78a27.28 27.28 0 0 0 4.29 2.1 18.65 18.65 0 0 0 4.1 1.06 5.74 5.74 0 0 0 3.77-.76 10.43 10.43 0 0 0 3.32-3.36 12.83 12.83 0 0 0 1.28-2.43 13.61 13.61 0 0 0 .76-2.62c.17-.91.33-1.81.47-2.71s.29-1.81.4-2.7.25-1.79.38-2.67.26-1.74.39-2.6a11.77 11.77 0 0 1 1.84-4.73c6.18 19.31 10.95 11.78 10.95 11.78l.77-1.05c.26-.35.51-.71.74-1.07a32.28 32.28 0 0 0 2.5-4.53 32.62 32.62 0 0 0 1.74-4.89 49.41 49.41 0 0 0 1.57-10.39c.07-1.77.07-3.55 0-5.34s-.18-3.57-.37-5.37-.39-3.57-.63-5.33-.49-3.49-.77-5.21c4.11 3.61 12 15.67 12 15.67.53.74 1 1.51 1.56 2.28s1 1.53 1.53 2.27 1 1.46 1.54 2.16a15.53 15.53 0 0 0 1.73 2 16 16 0 0 0 2.08 1.72 3.8 3.8 0 0 0 1.82.75 2.43 2.43 0 0 0 1.64-.48 9.13 9.13 0 0 0 1.36-1.12 7 7 0 0 0 1-1.2 15.38 15.38 0 0 0 1.78-3.72 18.47 18.47 0 0 0 .84-4.33c.11-1.55.17-3.08.16-4.58s-.08-3-.21-4.44-.27-2.85-.39-4.17c0 0-1-10.29-5.6-17.76.82 1.3 4.74 6.6 17.38 13.39 0 0 31.9 19-9.65-33.6-.73-.92-.59-1.62 2.32-.21q.69.38 1.86.93c.77.38 1.7.81 2.79 1.31s2.24 1 3.48 1.5 2.54 1 3.93 1.54 2.82 1 4.3 1.52 3 1 4.59 1.43 3.11.86 4.6 1.19 2.94.58 4.35.77a25.59 25.59 0 0 0 4 .26 20.73 20.73 0 0 0 3.61-.36 9.07 9.07 0 0 0 2.93-1.1 6.33 6.33 0 0 0 2-1.92 4.2 4.2 0 0 0 .71-1.47c1.07-5.44-38.15-25.29-38.15-25.29l5.65 1.08c1.83.33 3.59.63 5.28.92l5.06.82 5 .76c1.65.25 3.3.48 5 .7s3.33.42 5 .62 3.41.39 5.21.58l5.55.6c.55 0 1.15 0 1.8.05l2.12.09c.76 0 1.51.05 2.25 0s1.49-.08 2.22-.18a16.21 16.21 0 0 0 2.12-.41 15.28 15.28 0 0 0 2-.67 7.51 7.51 0 0 0 1.74-1 6.5 6.5 0 0 0 1.33-1.48 3.46 3.46 0 0 0 .62-1.62 2.14 2.14 0 0 0-.39-1.41c-4.1-7.32-46.66-18-46.66-18s4.67-.63 9.45-1.3 9.68-1.38 10.11-1.56a5.94 5.94 0 0 0 1.28-.65 5.45 5.45 0 0 0 1.28-1.43 3.72 3.72 0 0 0 .64-1.65 2.5 2.5 0 0 0-.31-1.52 6.7 6.7 0 0 0-1-1.36 7.78 7.78 0 0 0-1.28-1.13c-.48-.34-.93-.62-1.35-.86a8.18 8.18 0 0 0-1.14-.54s-12.17-7.18-50.52 3.55a127.82 127.82 0 0 0-13.11 4.64q-6.49 2.61-12.9 5.47t-12.71 6q-6.32 3.13-12.72 5.94t-12.88 5.32c-.21.08-.58.2-1.11.35s-1.24.35-2.1.58-1.56.42-2.09.58-.9.27-1.11.35q-4.26.73-8.54 1.33c-.52-.44-1-.87-1.58-1.3q-10.87-8.67-28.38-11.51t-43-2.83c-9.68 0-10.33-.19-22.49 1.45s-22.64 3.46-31.39 5.47q-13 4.16-15.52 13.59a14.25 14.25 0 0 0 .09 3.77 13.94 13.94 0 0 0 1.95 5.85 11.6 11.6 0 0 0 5.16 4.53c2.34 1.13 5.69 1.2 10.08.19q15.31-3 29-4.91c9.14-1.25 7.67-.88 16.18-.88q5.5.76 10.27 1.89a22.7 22.7 0 0 1 7.72 3.21 9.76 9.76 0 0 1 3.89 6q.92 4-.8 10.38l-2.13 7.92q-36.52 0-54.69 3.78-19 3.39-30.45 10.19a65.44 65.44 0 0 0-18.26 14.24L337 449q6.28-23.4-10.52-36.24-11.22-9.06-30.36-11.51t-47.31-2.45l16.88-65.67q1.72-6.42-2-10.57t-10.79-4.16H219a22.87 22.87 0 0 0-13.43 4.15 18.52 18.52 0 0 0-7.67 10.57l-3.06 11.56q-8.5-5-16.73-10.37-13.92-9.07-27-19.13c-.22-.25-.64-.67-1.25-1.24s-1.41-1.33-2.4-2.24-1.79-1.66-2.4-2.24-1-1-1.25-1.25q-6.89-7.77-13.38-15.87t-12.64-16.52q-6.13-8.42-12.61-16.59t-13.29-16.08a195.5 195.5 0 0 0-14.24-15.24c-43.94-41.11-66.42-41.35-66.42-41.35a13.85 13.85 0 0 0-2-.18c-.75 0-1.6 0-2.54.05a13.53 13.53 0 0 0-2.67.43 10.86 10.86 0 0 0-2.4.93A3.72 3.72 0 0 0 0 189.41a4.89 4.89 0 0 0-.45 2.47 6.69 6.69 0 0 0 .61 2.66 8 8 0 0 0 1.22 1.72c.46.53 6.59 5 12.6 9.3s11.93 8.5 11.93 8.5-67-18.31-78.49-12.47A3.18 3.18 0 0 0-54.3 203a4.37 4.37 0 0 0-.44 2.4 8.41 8.41 0 0 0 .63 2.78zm437.48 298.93a34.59 34.59 0 0 1 7.82-16A15.69 15.69 0 0 1 405 485.6a65.26 65.26 0 0 1 17.44 2.26l-10.32 38.5a65.59 65.59 0 0 1-17.45 2.64q-10.14 0-12.23-5.28t.93-16.61zm-313 91.19l-3.16-.61c-1.06-.2-2.12-.37-3.19-.51a85 85 0 0 0-12-.92 59 59 0 0 0-10.5.87 25.62 25.62 0 0 0-8.46 3 15.47 15.47 0 0 0-8.06 9.78l-4.2 15.68q-1.65 6.1 2.81 9.87 3.28 2.54 9.39 3.26 1.95.21 4.89.36t6.72.15l-.54 2a7.58 7.58 0 0 1-1.39 3 5.85 5.85 0 0 1-2 1.53 10.62 10.62 0 0 1-5.46 1.32c-1.11 0-2.28-.05-3.52-.15s-2.49-.24-3.75-.41-2.48-.35-3.65-.56-2.2-.41-3.1-.61a3.09 3.09 0 0 0-1-.1 5.45 5.45 0 0 0-5.13 2.75c-.34.67-.52 1-.54 1.12q-.74 2.75 2.2 3.77a66.05 66.05 0 0 0 7.73 1.47 62.61 62.61 0 0 0 8.46.56 79.59 79.59 0 0 0 11.21-.61A29 29 0 0 0 54.26 651a15.46 15.46 0 0 0 8.08-9.77l10.47-39.1q.8-2.91-2.4-3.83zm-23.5 32.48a18 18 0 0 1-4.7.71c-1.83 0-2.92-.47-3.3-1.42s-.3-2.45.25-4.48l4.2-15.68a14.47 14.47 0 0 1 1.26-3.16 4.72 4.72 0 0 1 2.17-2.14 5.43 5.43 0 0 1 2.52-.51 15.15 15.15 0 0 1 4.55.72zm121.66-30.65a16.09 16.09 0 0 0-7.65-3.1 74.2 74.2 0 0 0-11.61-.77 69 69 0 0 0-8.84.66q-4.94.68-8.47 1.48c-2.34.75-3.73 2-4.19 3.67a3.61 3.61 0 0 0 0 1 3.74 3.74 0 0 0 .52 1.57 3.21 3.21 0 0 0 1.4 1.23 4.19 4.19 0 0 0 2.71 0q4.14-.81 7.84-1.32a52.16 52.16 0 0 1 7.14-.51c1 .14 1.91.31 2.77.51a6.06 6.06 0 0 1 2.08.87 2.63 2.63 0 0 1 1.05 1.63 6.05 6.05 0 0 1-.22 2.8l-.57 2.14a79.6 79.6 0 0 0-14.76 1 25.1 25.1 0 0 0-8.21 2.75 15.47 15.47 0 0 0-8.08 9.78q-1.64 6.1 2.81 9.87a15.15 15.15 0 0 0 6.84 3.06 52.21 52.21 0 0 0 9.93.81 92 92 0 0 0 9.47-.56q5.43-.56 10.07-1.47a7.1 7.1 0 0 0 2.88-1.43 4.68 4.68 0 0 0 1.6-2.44l6.3-23.52q1.73-6.24-2.81-9.71zm-21 30.65a17.89 17.89 0 0 1-4.7.71c-1.82 0-2.92-.47-3.3-1.42s-.29-2.45.25-4.48a9.32 9.32 0 0 1 2.11-4.33 4.26 4.26 0 0 1 3.72-1.48 17.44 17.44 0 0 1 4.7.62zm80.06-47.14a3.85 3.85 0 0 0-3-1.12h-9.15a6 6 0 0 0-3.5 1.12 5 5 0 0 0-2.07 2.85l-2.65 9.87a79.29 79.29 0 0 0-14.75 1 24.93 24.93 0 0 0-8.22 2.75 15.47 15.47 0 0 0-8.08 9.78l-4.2 15.68q-1.63 6.1 2.81 9.87a15.15 15.15 0 0 0 6.84 3.06 52.21 52.21 0 0 0 9.93.81 92 92 0 0 0 9.47-.56q5.43-.56 10.07-1.47a7.1 7.1 0 0 0 2.88-1.43 4.68 4.68 0 0 0 1.6-2.44l12.58-46.94a2.89 2.89 0 0 0-.59-2.83zM198 630.78a17.89 17.89 0 0 1-4.7.71c-1.82 0-2.92-.47-3.3-1.42s-.3-2.45.25-4.48l4.2-15.68a14.47 14.47 0 0 1 1.26-3.16 4.69 4.69 0 0 1 2.18-2.14 5.36 5.36 0 0 1 2.51-.51 15.27 15.27 0 0 1 4.56.72zm93.7-7.23a88.23 88.23 0 0 0 14.73-.92 29.62 29.62 0 0 0 8.24-2.85 15.56 15.56 0 0 0 8.11-9.87q1.68-6.31-2.84-9.78a15.25 15.25 0 0 0-6.84-3 51.47 51.47 0 0 0-9.93-.82 94.75 94.75 0 0 0-9.47.56c-3.63.38-7 .87-10.07 1.48a7 7 0 0 0-2.88 1.43 4.68 4.68 0 0 0-1.6 2.44l-6.28 23.42q-1.63 6.1 2.82 9.87a15.84 15.84 0 0 0 7.73 3.06 80.83 80.83 0 0 0 11.56.71c1.18 0 2.52-.05 4-.15s3-.26 4.58-.46 3.1-.42 4.63-.66 2.92-.5 4.18-.76c2.25-.75 3.62-2 4.1-3.77a1.51 1.51 0 0 0 .08-1 3.76 3.76 0 0 0-.6-1.53 3.55 3.55 0 0 0-1.52-1.22 4 4 0 0 0-2.65-.05q-4.65.92-7.9 1.32a57.21 57.21 0 0 1-7 .41 7.18 7.18 0 0 1-4.75-1.32 2.49 2.49 0 0 1-1.07-1.53 5.41 5.41 0 0 1 .13-2.95zm5-18.73a17.53 17.53 0 0 1 4.7-.72c1.35 0 2.17.17 2.48.51a2.3 2.3 0 0 1 1.11 2 13.22 13.22 0 0 1-.51 3.26 15.72 15.72 0 0 1-1.28 3.2 4.64 4.64 0 0 1-2.2 2.23 5.36 5.36 0 0 1-2.51.51 15.25 15.25 0 0 1-4.56-.71zm228.5 18.73a88.23 88.23 0 0 0 14.73-.92 29.51 29.51 0 0 0 8.24-2.85 15.53 15.53 0 0 0 8.11-9.87q1.69-6.31-2.84-9.78a15.25 15.25 0 0 0-6.84-3 51.32 51.32 0 0 0-9.93-.82q-4 0-9.47.56t-10.07 1.48a7.1 7.1 0 0 0-2.88 1.43 4.68 4.68 0 0 0-1.6 2.44l-6.27 23.42q-1.65 6.1 2.81 9.87a15.88 15.88 0 0 0 7.73 3.06 80.83 80.83 0 0 0 11.56.71c1.19 0 2.52-.05 4-.15s3-.26 4.57-.46 3.1-.42 4.63-.66 2.92-.5 4.18-.76c2.26-.75 3.62-2 4.1-3.77a1.51 1.51 0 0 0 .08-1 3.5 3.5 0 0 0-.6-1.53 3.58 3.58 0 0 0-1.51-1.22 4.07 4.07 0 0 0-2.66-.05q-4.63.92-7.89 1.32a57.38 57.38 0 0 1-7.06.41 7.2 7.2 0 0 1-4.75-1.32 2.49 2.49 0 0 1-1.07-1.53 5.34 5.34 0 0 1 .14-2.95zm5-18.73a17.54 17.54 0 0 1 4.71-.72c1.34 0 2.16.17 2.47.51a2.3 2.3 0 0 1 1.12 2 12.84 12.84 0 0 1-.52 3.26 15.68 15.68 0 0 1-1.27 3.2 4.66 4.66 0 0 1-2.2 2.19 5.36 5.36 0 0 1-2.51.51 15.14 15.14 0 0 1-4.55-.71z" transform="translate(54.89 -186.37)"/>
</svg>
