<svg id="Layer_1" data-name="Layer 1" xmlns="http://www.w3.org/2000/svg" viewBox="0 0 312.75 88.54">
  <defs>
    <style>
      .cls-1{fill:#fff}
    </style>
  </defs>
  <path class="cls-1" d="M766.65 342c-1.43-1.77-3.62-2.67-6.51-2.67H691.8c-.1 0-9.58.11-11.57 9.49l-2.85 11.81h3l2.62-11.2c1.53-7.15 8.46-7.24 8.76-7.24h68.34c2 0 3.41.53 4.26 1.58 1.41 1.74 1 4.51.92 5.05L762 364.45l3.05-1.73 3.07-13.28s.99-4.44-1.47-7.44zM839.51 363.88c-.46-.05-1-.09-1.54-.12s-1.09 0-1.56 0a14.91 14.91 0 0 0-4.09.65 23.67 23.67 0 0 0-4 1.53 37.83 37.83 0 0 0-3.71 2.08q-2.07 1.31-3.27 2.16l1.56-6.26h-14.44l-10.88 43.63H812l7.28-29.22q2.57-.85 5.21-1.47a21.28 21.28 0 0 1 4.91-.62c1.27 0 2.41 0 3.43.13a9.68 9.68 0 0 1 2.28.41h1.2zM794.68 367.92q-4-5.4-14.63-5.4-11.7 0-19.79 6.37A30.38 30.38 0 0 0 749.5 386q-2.71 10.92 2.79 16.82t18.6 5.91a49.18 49.18 0 0 0 6.16-.34 50 50 0 0 0 5.06-.91 38.79 38.79 0 0 0 4.3-1.14l3.54-1.23 2.8-11.23h-1.52c-.74.45-1.69.95-2.83 1.52s-2.37 1.1-3.67 1.59a30.77 30.77 0 0 1-4.79 1.38 25.27 25.27 0 0 1-5.08.53 24.06 24.06 0 0 1-5.26-.53 9.6 9.6 0 0 1-3.89-1.73 6.28 6.28 0 0 1-2.24-3.24 10.73 10.73 0 0 1-.1-5.07H795l1.22-4.9q2.47-10.1-1.54-15.51zm-11.88 12.16h-17.42a12.9 12.9 0 0 1 4.22-6.45 11.09 11.09 0 0 1 7.16-2.37q4.11 0 5.55 2.26t.49 6.56z" transform="translate(-526.75 -339.3)"/>
  <path class="cls-1" d="M141.28 24.58l-16.55 28.87-2.27-28.87h-15.15l5.59 43.63h15.73l27.48-43.63h-14.83z"/>
  <path class="cls-1" d="M752.71 407l-2 10.7c-1.5 7.1-8.46 7.24-8.75 7.24H673.6c-2 0-3.42-.53-4.27-1.58-1.54-1.89-.93-5-.92-5.06l7.65-36.3h-1.51l-2.33 3.71-6.64 32c0 .18-.92 4.49 1.5 7.47 1.42 1.77 3.61 2.66 6.52 2.66h68.33c.09 0 9.58-.11 11.58-9.54l1.85-9.78zM624.52 366.39q-4.53-3.75-16.47-3.75a62.21 62.21 0 0 0-9.83.79c-3.32.54-5.74 1-7.26 1.38l-2.63 10.53h1.24a60.56 60.56 0 0 1 7.22-2.23 27.47 27.47 0 0 1 6.19-.88c3.77 0 6.47.46 8.12 1.38s2.18 2.59 1.58 5l-.06.24q-6.36.39-12 1.09a38.62 38.62 0 0 0-10 2.48 19.84 19.84 0 0 0-7.12 4.74 17.41 17.41 0 0 0-4 7.85q-1.47 5.91 1.61 9.79t9.23 3.89a23.48 23.48 0 0 0 5.24-.47 28.16 28.16 0 0 0 4.11-1.36 21.3 21.3 0 0 0 3.61-1.87l3.18-2.09-1.15 4.62h14.33l7.4-29.68q1.94-7.7-2.54-11.45zm-16.29 29.74a17 17 0 0 1-4.16 2.29 11.72 11.72 0 0 1-4.07.81q-3.42 0-4.88-1.14c-1-.77-1.21-2.17-.7-4.22a6.63 6.63 0 0 1 1.89-3.36 8.54 8.54 0 0 1 3.41-1.88 25 25 0 0 1 4.69-1c1.56-.17 3.58-.37 6.08-.6zM577.16 379.11q2-8-.7-12.22t-9.78-4.21a19.86 19.86 0 0 0-7.83 1.59 49.24 49.24 0 0 0-8 4.43l1.21-4.82h-14.43l-10.88 43.63h14.42l7.71-30.93a24 24 0 0 1 4.36-2A12.55 12.55 0 0 1 557 374a8.12 8.12 0 0 1 3.59.64 3.15 3.15 0 0 1 1.61 2.12 10.35 10.35 0 0 1-.12 3.87c-.28 1.74-.64 3.5-1.08 5.26l-5.4 21.64h14.5z" transform="translate(-526.75 -339.3)"/>
  <path class="cls-1" d="M168.45 78.15h-16.33l14.4-67.76h16.33l-14.4 67.76zM229.07 23.94h-13.18l-11.52 54.21h-16.34l11.53-54.21h-12.81l2.88-13.55h42.32l-2.88 13.55z"/>
</svg>
