<svg id="Layer_1" data-name="Layer 1" xmlns="http://www.w3.org/2000/svg" viewBox="0 0 535 178">
  <defs>
    <style>
      .cls-1{fill:#798f9a}.cls-2{fill:#80bc00}.cls-3{fill:url(#radial-gradient)}.cls-4{fill:url(#linear-gradient)}.cls-5{fill:url(#radial-gradient-2)}.cls-6{fill:url(#linear-gradient-2)}.cls-7{fill:url(#linear-gradient-3)}
    </style>
    <radialGradient id="radial-gradient" cx="125.57" cy="125.99" r="66.53" gradientUnits="userSpaceOnUse">
      <stop offset="0" stop-color="#05658c"/>
      <stop offset="1" stop-color="#0f2f47"/>
    </radialGradient>
    <linearGradient id="linear-gradient" x1="20.73" y1="131.38" x2="274.63" y2="131.38" gradientUnits="userSpaceOnUse">
      <stop offset="0" stop-color="#abca3d"/>
      <stop offset=".79" stop-color="#248235"/>
    </linearGradient>
    <radialGradient id="radial-gradient-2" cx="300.85" cy="53.54" r="81.21" gradientUnits="userSpaceOnUse">
      <stop offset="0" stop-color="#c5d1d7"/>
      <stop offset="1" stop-color="#7a8f9b"/>
    </radialGradient>
    <linearGradient id="linear-gradient-2" x1="280.36" y1="170.28" x2="310.29" y2="82.47" gradientUnits="userSpaceOnUse">
      <stop offset="0" stop-color="#0f2f47"/>
      <stop offset="1" stop-color="#05658c"/>
    </linearGradient>
    <linearGradient id="linear-gradient-3" x1="2" y1="105.41" x2="291.43" y2="105.41" gradientUnits="userSpaceOnUse">
      <stop offset="0" stop-color="#abca3d"/>
      <stop offset="1" stop-color="#248235"/>
    </linearGradient>
  </defs>
  <path class="cls-1" d="M 397.4 147.6 a 1.5 1.5 0 0 0 0.5 0.4 a 1.3 1.3 0 0 0 0.7 0.2 a 1.6 1.6 0 0 0 1.1 -0.4 a 1.4 1.4 0 0 0 0.4 -0.5 a 1.9 1.9 0 0 0 0.1 -0.8 v -6.4 h 1.4 v 6.5 a 2.9 2.9 0 0 1 -0.9 2.2 a 3 3 0 0 1 -2 0.8 a 2.8 2.8 0 0 1 -2.4 -1.2 z M 408.6 147.5 h -3.5 l -0.7 2.1 h -1.5 l 3.3 -9.4 h 1.2 l 3.3 9.4 h -1.4 z m -0.4 -1.3 l -1.3 -4.1 l -1.3 4.1 z M 412.2 140.2 h 3.2 a 3.1 3.1 0 0 1 2.8 1.6 a 2.9 2.9 0 0 1 0.4 1.1 q 0.1 0.6 0.1 2 a 14.5 14.5 0 0 1 -0.1 2.1 a 3.3 3.3 0 0 1 -0.1 0.6 c -0.1 0.1 -0.2 0.3 -0.3 0.5 a 3.3 3.3 0 0 1 -1.1 1.1 a 3.1 3.1 0 0 1 -1.7 0.5 h -3.1 z m 1.4 8.1 h 1.7 a 1.9 1.9 0 0 0 1.7 -0.8 a 1.6 1.6 0 0 0 0.3 -0.8 c 0 -0.3 0.1 -0.9 0.1 -1.7 s 0 -1.4 -0.1 -1.8 a 1.6 1.6 0 0 0 -0.4 -0.9 a 1.8 1.8 0 0 0 -1.6 -0.8 h -1.7 z M 420.8 140.2 h 3.6 a 2.7 2.7 0 0 1 1.9 0.6 a 2.5 2.5 0 0 1 0.9 2 a 2.6 2.6 0 0 1 -1.8 2.6 l 2.1 4.2 h -1.6 l -1.9 -4 h -1.8 v 4 h -1.4 z m 1.4 4.1 h 2.1 a 1.5 1.5 0 0 0 1.2 -0.5 a 1.4 1.4 0 0 0 0.4 -1 a 1.3 1.3 0 0 0 -0.5 -1.1 a 1.6 1.6 0 0 0 -1 -0.3 h -2.2 z M 433.9 147.5 h -3.5 l -0.7 2.1 h -1.5 l 3.3 -9.4 h 1.1 l 3.3 9.4 h -1.5 z m -0.4 -1.3 l -1.3 -4.1 l -1.3 4.1 z M 437.5 140.2 h 1.4 v 8.1 h 4.5 v 1.4 h -5.8 z M 445.1 140.2 h 1.3 l 4.1 6.7 v -6.7 H 452 v 9.4 h -1.3 l -4.1 -6.7 v 6.7 h -1.4 z M 454.2 144.9 a 14.8 14.8 0 0 1 0.1 -2.2 a 2.7 2.7 0 0 1 0.3 -0.9 a 3.2 3.2 0 0 1 1.1 -1.2 a 3 3 0 0 1 1.8 -0.5 a 3.1 3.1 0 0 1 2.9 1.7 a 2.3 2.3 0 0 1 0.3 0.9 a 30.1 30.1 0 0 1 0 4.4 a 2.3 2.3 0 0 1 -0.3 0.9 a 3 3 0 0 1 -1 1.1 a 3.1 3.1 0 0 1 -1.8 0.5 a 3 3 0 0 1 -1.8 -0.5 a 3.1 3.1 0 0 1 -1.1 -1.1 l -0.2 -0.4 a 2.5 2.5 0 0 1 -0.1 -0.5 a 14.9 14.9 0 0 1 -0.1 -2.2 z m 1.4 0 a 11.1 11.1 0 0 0 0.1 1.9 a 1.5 1.5 0 0 0 0.3 0.8 a 1.6 1.6 0 0 0 0.6 0.5 a 1.6 1.6 0 0 0 0.8 0.2 a 1.7 1.7 0 0 0 0.9 -0.2 a 1.5 1.5 0 0 0 0.6 -0.5 a 1.6 1.6 0 0 0 0.4 -0.8 a 11.1 11.1 0 0 0 0.1 -1.9 a 11.3 11.3 0 0 0 -0.1 -1.9 a 1.6 1.6 0 0 0 -0.4 -0.8 a 1.6 1.6 0 0 0 -0.6 -0.5 a 2.1 2.1 0 0 0 -0.9 -0.2 a 1.9 1.9 0 0 0 -0.8 0.2 a 1.7 1.7 0 0 0 -0.6 0.5 a 1.5 1.5 0 0 0 -0.3 0.8 a 11.3 11.3 0 0 0 -0.1 1.9 z M 466.3 140.2 h 3.3 a 5.2 5.2 0 0 1 1.1 0.1 a 2.8 2.8 0 0 1 1 0.6 a 2.2 2.2 0 0 1 0.7 0.9 a 3 3 0 0 1 0.3 1.4 a 2.9 2.9 0 0 1 -0.7 1.9 a 2.7 2.7 0 0 1 -2.1 0.9 h -2.1 v 3.7 h -1.4 z m 1.4 4.4 h 2 a 1.4 1.4 0 0 0 1.2 -0.5 a 1.6 1.6 0 0 0 0.4 -1 a 1.9 1.9 0 0 0 -0.1 -0.8 a 1.1 1.1 0 0 0 -0.4 -0.5 a 1.6 1.6 0 0 0 -1 -0.3 h -2 z M 478.1 147.5 h -3.5 l -0.7 2.1 h -1.5 l 3.3 -9.4 h 1.1 l 3.3 9.4 h -1.5 z m -0.4 -1.3 l -1.3 -4.1 l -1.4 4.1 z M 481.7 140.2 h 3.2 a 3.1 3.1 0 0 1 2.8 1.6 a 2.7 2.7 0 0 1 0.4 1.1 a 18.6 18.6 0 0 1 0.1 2 a 14.5 14.5 0 0 1 -0.1 2.1 a 3.3 3.3 0 0 1 -0.1 0.6 c -0.1 0.1 -0.2 0.3 -0.3 0.5 a 3.3 3.3 0 0 1 -1.1 1.1 a 3.1 3.1 0 0 1 -1.7 0.5 h -3.1 z m 1.4 8.1 h 1.7 a 1.9 1.9 0 0 0 1.7 -0.8 a 1.6 1.6 0 0 0 0.3 -0.8 a 16.1 16.1 0 0 0 0.1 -1.7 c 0 -0.8 0 -1.4 -0.1 -1.8 a 1.7 1.7 0 0 0 -0.3 -0.9 a 1.8 1.8 0 0 0 -1.6 -0.8 h -1.7 z M 494.8 147.5 h -3.5 l -0.7 2.1 h -1.5 l 3.3 -9.4 h 1.2 l 3.3 9.4 h -1.5 z m -0.4 -1.3 l -1.3 -4.1 l -1.3 4.1 z M 498.4 140.2 h 1.4 v 8.1 h 4.5 v 1.4 h -5.8 z M 506.2 147.3 a 3.9 3.9 0 0 0 2.6 0.9 c 1.2 0 1.8 -0.5 1.8 -1.3 s -0.4 -1.1 -1.2 -1.3 l -1.2 -0.2 a 2.9 2.9 0 0 1 -1.8 -0.9 a 2.5 2.5 0 0 1 -0.6 -1.7 a 2.6 2.6 0 0 1 0.8 -2 a 3 3 0 0 1 2.2 -0.8 a 5 5 0 0 1 3 1 l -0.8 1.2 a 4.1 4.1 0 0 0 -2.3 -0.7 a 1.7 1.7 0 0 0 -1.1 0.3 a 1.2 1.2 0 0 0 -0.5 1 a 1 1 0 0 0 0.3 0.7 a 1.7 1.7 0 0 0 1 0.5 l 1 0.1 a 2.8 2.8 0 0 1 1.9 0.9 a 2.7 2.7 0 0 1 0.6 1.8 c 0 1.8 -1.1 2.7 -3.2 2.7 a 5.1 5.1 0 0 1 -3.5 -1.3 z M 515.5 141.4 H 513 v -1.3 h 6.4 v 1.3 h -2.5 v 8.2 h -1.4 z M 519.9 140.2 h 1.5 l 2.1 7.2 l 2.1 -7.2 H 527 l -3 9.4 h -1.1 z M 527.9 144.9 a 16.9 16.9 0 0 1 0.1 -2.2 a 2.7 2.7 0 0 1 0.3 -0.9 a 3.1 3.1 0 0 1 1.1 -1.2 a 3 3 0 0 1 1.8 -0.5 a 3.1 3.1 0 0 1 2.8 1.7 a 2.2 2.2 0 0 1 0.3 0.9 a 30.1 30.1 0 0 1 0 4.4 a 2.2 2.2 0 0 1 -0.3 0.9 a 3 3 0 0 1 -1 1.1 a 3.1 3.1 0 0 1 -1.8 0.5 a 3 3 0 0 1 -1.8 -0.5 a 3.1 3.1 0 0 1 -1.1 -1.1 c -0.1 -0.1 -0.1 -0.3 -0.2 -0.4 a 2.4 2.4 0 0 1 -0.1 -0.5 a 17 17 0 0 1 -0.1 -2.2 z m 1.4 0 a 11.1 11.1 0 0 0 0.1 1.9 a 1.8 1.8 0 0 0 0.9 1.3 a 1.6 1.6 0 0 0 0.8 0.2 a 1.7 1.7 0 0 0 0.9 -0.2 a 1.5 1.5 0 0 0 0.6 -0.5 a 1.7 1.7 0 0 0 0.4 -0.8 a 12.8 12.8 0 0 0 0.1 -1.9 a 13 13 0 0 0 -0.1 -1.9 a 2 2 0 0 0 -0.9 -1.3 a 1.9 1.9 0 0 0 -1.7 0 a 1.7 1.7 0 0 0 -0.6 0.5 a 1.6 1.6 0 0 0 -0.4 0.8 a 11.3 11.3 0 0 0 -0.1 1.9 z"/>
  <g>
    <path class="cls-2" d="M 328.3 120.4 h 5.1 a 4.8 4.8 0 0 1 4.4 2.5 a 4.5 4.5 0 0 1 0.7 1.8 c 0.1 0.6 0.1 1.7 0.1 3.2 a 22.8 22.8 0 0 1 -0.2 3.4 a 3.6 3.6 0 0 1 -0.2 0.9 a 7.3 7.3 0 0 1 -0.4 0.8 a 5 5 0 0 1 -1.8 1.8 a 4.9 4.9 0 0 1 -2.8 0.7 h -4.9 z m 2.2 12.9 h 2.6 a 3 3 0 0 0 2.7 -1.3 a 2.5 2.5 0 0 0 0.5 -1.2 a 27.2 27.2 0 0 0 0.1 -2.8 c 0 -1.3 0 -2.2 -0.1 -2.8 a 2.6 2.6 0 0 0 -0.6 -1.4 a 2.9 2.9 0 0 0 -2.6 -1.3 h -2.6 z M 342 120.4 h 5.7 a 4.4 4.4 0 0 1 3 1 a 4 4 0 0 1 1.4 3.2 a 4.2 4.2 0 0 1 -2.8 4.2 l 3.4 6.7 H 350 l -3 -6.4 h -2.8 v 6.4 H 342 z m 2.2 6.6 h 3.3 a 2.3 2.3 0 0 0 2.5 -2.4 a 2 2 0 0 0 -0.7 -1.7 a 2.5 2.5 0 0 0 -1.6 -0.5 h -3.5 z M 354.4 133.5 l 6.6 -11.1 h -6.5 v -2 h 9.2 v 1.7 l -6.8 11.2 h 6.8 v 2.1 h -9.3 z m 3.6 -14.7 h 2.4 l 2.3 -3.1 h -2 l -1.4 1.8 l -1.4 -1.8 h -2 z M 374.1 132 h -5.5 l -1.1 3.4 h -2.3 l 5.3 -15 h 1.9 l 5.3 15 h -2.3 z m -0.6 -2 l -2.1 -6.6 l -2.1 6.6 z M 377.2 120.4 h 2.3 l 3.3 11.4 l 3.3 -11.4 h 2.3 l -4.8 15 H 382 z M 390.9 120.4 h 2.1 l 6.6 10.6 v -10.6 h 2.2 v 15 h -2.1 l -6.6 -10.7 v 10.7 h -2.2 z M 405.2 127.9 a 25.8 25.8 0 0 1 0.1 -3.5 a 4.4 4.4 0 0 1 0.5 -1.4 a 5.1 5.1 0 0 1 1.7 -1.8 a 4.9 4.9 0 0 1 2.9 -0.8 a 4.9 4.9 0 0 1 2.9 0.8 a 5.1 5.1 0 0 1 1.6 1.9 a 3.4 3.4 0 0 1 0.5 1.4 a 29 29 0 0 1 0.1 3.5 a 29.1 29.1 0 0 1 -0.1 3.5 a 3.5 3.5 0 0 1 -0.5 1.4 a 4.9 4.9 0 0 1 -1.6 1.8 a 5.1 5.1 0 0 1 -2.9 0.9 a 5.2 5.2 0 0 1 -4.5 -2.7 c -0.1 -0.2 -0.2 -0.4 -0.3 -0.7 a 4.9 4.9 0 0 1 -0.2 -0.8 a 25.9 25.9 0 0 1 -0.1 -3.5 z m 2.2 0 a 18.8 18.8 0 0 0 0.2 3 a 2.5 2.5 0 0 0 0.6 1.3 a 2.5 2.5 0 0 0 0.9 0.8 a 2.5 2.5 0 0 0 1.3 0.3 a 2.6 2.6 0 0 0 1.4 -0.3 a 2.4 2.4 0 0 0 0.9 -0.8 a 2.7 2.7 0 0 0 0.6 -1.3 a 19.2 19.2 0 0 0 0.1 -3 a 19.7 19.7 0 0 0 -0.1 -3 a 2.7 2.7 0 0 0 -0.6 -1.3 a 2.8 2.8 0 0 0 -0.9 -0.8 a 3.2 3.2 0 0 0 -1.4 -0.3 a 3 3 0 0 0 -1.3 0.3 a 2.9 2.9 0 0 0 -0.9 0.8 a 2.5 2.5 0 0 0 -0.6 1.3 a 19.3 19.3 0 0 0 -0.2 3 z M 424.4 120.4 h 5.3 a 8.1 8.1 0 0 1 1.6 0.2 a 4.3 4.3 0 0 1 1.6 0.9 a 3.6 3.6 0 0 1 1.1 1.4 a 4.8 4.8 0 0 1 0.5 2.1 a 4.7 4.7 0 0 1 -1.1 3 a 4.3 4.3 0 0 1 -3.4 1.5 h -3.4 v 5.8 h -2.2 z m 2.2 7 h 3.3 a 2.3 2.3 0 0 0 1.8 -0.8 a 2.5 2.5 0 0 0 0.6 -1.6 a 3 3 0 0 0 -0.2 -1.3 a 1.8 1.8 0 0 0 -0.7 -0.7 a 2.7 2.7 0 0 0 -1.6 -0.4 h -3.2 z M 437.3 120.4 H 443 a 4.4 4.4 0 0 1 3 1 a 4 4 0 0 1 1.4 3.2 a 4.2 4.2 0 0 1 -2.8 4.2 l 3.4 6.7 h -2.6 l -3 -6.4 h -2.8 v 6.4 h -2.2 z m 2.2 6.6 h 3.3 a 2.4 2.4 0 0 0 1.9 -0.8 a 2.3 2.3 0 0 0 0.6 -1.6 a 2 2 0 0 0 -0.7 -1.7 a 2.5 2.5 0 0 0 -1.6 -0.5 h -3.5 z M 448.7 120.4 H 451 l 3.3 11.4 l 3.3 -11.4 h 2.4 l -4.8 15 h -1.7 z M 462.4 120.4 h 9.3 v 2.1 h -7.1 v 4.3 h 6 v 2 h -6 v 4.4 h 7.1 v 2.1 h -9.3 z M 474.5 120.4 h 2.1 l 6.6 10.6 v -10.6 h 2.2 v 15 h -2.1 l -6.6 -10.7 v 10.7 h -2.2 z M 489.5 131.8 a 6.2 6.2 0 0 0 4.1 1.5 c 1.9 0 2.8 -0.7 2.9 -2.1 c 0 -1.1 -0.6 -1.8 -1.9 -2 l -1.9 -0.3 a 4.7 4.7 0 0 1 -2.9 -1.4 a 4 4 0 0 1 -1 -2.8 a 4.2 4.2 0 0 1 1.3 -3.2 a 4.8 4.8 0 0 1 3.5 -1.2 a 8 8 0 0 1 4.7 1.6 l -1.2 1.9 a 6.4 6.4 0 0 0 -3.6 -1.2 a 2.7 2.7 0 0 0 -1.7 0.5 a 2 2 0 0 0 -0.7 1.6 a 1.7 1.7 0 0 0 0.5 1.2 a 2.9 2.9 0 0 0 1.6 0.7 c 0.4 0.1 0.9 0.1 1.6 0.2 a 4.5 4.5 0 0 1 3 1.5 a 4.3 4.3 0 0 1 1 2.8 q -0.1 4.3 -5.1 4.4 a 8.1 8.1 0 0 1 -5.5 -2 z M 504.3 122.4 h -4 v -2 h 10.2 v 2 h -4 v 13 h -2.2 z M 511.3 120.4 h 2.3 l 3.3 11.4 l 3.3 -11.4 h 2.3 l -4.8 15 h -1.7 z M 524 127.9 a 25.8 25.8 0 0 1 0.1 -3.5 a 4.2 4.2 0 0 1 0.5 -1.4 a 5 5 0 0 1 1.7 -1.8 a 4.8 4.8 0 0 1 2.9 -0.8 a 4.9 4.9 0 0 1 2.9 0.8 a 5 5 0 0 1 1.7 1.9 a 3.6 3.6 0 0 1 0.5 1.4 a 29 29 0 0 1 0.1 3.5 a 29.1 29.1 0 0 1 -0.1 3.5 a 3.6 3.6 0 0 1 -0.5 1.4 a 4.8 4.8 0 0 1 -1.7 1.8 a 5.1 5.1 0 0 1 -2.9 0.9 a 5.2 5.2 0 0 1 -4.5 -2.7 c -0.1 -0.2 -0.2 -0.4 -0.3 -0.7 a 4 4 0 0 1 -0.2 -0.8 a 25.9 25.9 0 0 1 -0.1 -3.5 z m 2.2 0 a 17.7 17.7 0 0 0 0.2 3 a 2.8 2.8 0 0 0 1.5 2 a 2.5 2.5 0 0 0 1.3 0.3 a 2.6 2.6 0 0 0 1.4 -0.3 a 2.5 2.5 0 0 0 0.9 -0.8 a 2.7 2.7 0 0 0 0.6 -1.3 a 19.2 19.2 0 0 0 0.1 -3 a 19.7 19.7 0 0 0 -0.1 -3 a 2.7 2.7 0 0 0 -0.6 -1.3 a 2.9 2.9 0 0 0 -0.9 -0.8 a 3.2 3.2 0 0 0 -1.4 -0.3 a 3.1 3.1 0 0 0 -1.3 0.3 a 2.9 2.9 0 0 0 -0.9 0.8 a 2.5 2.5 0 0 0 -0.6 1.3 a 18.1 18.1 0 0 0 -0.2 3 z"/>
  </g>
  <g>
    <path class="cls-3" d="M 75.2 107 h 42.1 l 67.7 67.7 l 21.1 -21.1 l -76.3 -76.3 H 45.1 l 30.1 29.8 z"/>
    <path class="cls-4" d="M 239.7 85.2 l 38.7 -0.1 v 0 h 14.1 v 3.2 h 0 v 10.8 h -25.6 v -0.1 l -80.4 78.5 h -39.9 l 93.2 -92.4 z"/>
    <path class="cls-5" d="M 403.6 104.9 h -41.2 l -20.8 -20.8 l -11.2 11.2 a 43.5 43.5 0 0 0 -14.9 -9.9 a 50.7 50.7 0 0 0 -11.9 -3.2 c -0.2 0 -0.4 -0.1 -0.6 -0.1 c -0.6 -0.1 -1.1 -0.2 -1.6 -0.3 c -1.2 -0.2 -2.3 -0.4 -3.5 -0.5 l -37 -37 l -41 41 l -21.7 -21.7 l 61.5 -61.5 l 62.3 62.3 l 20.6 -20.6 z"/>
    <path class="cls-6" d="M 334 157.6 l -5 5.6 A 41.4 41.4 0 0 1 313.6 174 a 50.4 50.4 0 0 1 -19.1 3.6 a 49.2 49.2 0 0 1 -24.1 -6 A 44.4 44.4 0 0 1 253.3 155 a 48 48 0 0 1 0 -47.3 a 44.3 44.3 0 0 1 17.2 -16.6 a 49.6 49.6 0 0 1 24.1 -6 a 50.4 50.4 0 0 1 19 3.5 a 40.7 40.7 0 0 1 14 9.4 l -17.9 17.9 a 20.1 20.1 0 0 0 -14.7 -5.7 a 22.6 22.6 0 0 0 -11.3 2.8 a 19.4 19.4 0 0 0 -7.6 7.4 a 22.7 22.7 0 0 0 0 21.7 a 19.3 19.3 0 0 0 7.6 7.4 a 22.6 22.6 0 0 0 11.3 2.8 a 20.3 20.3 0 0 0 15.4 -6.6 l 5.4 -5.7 z"/>
    <path class="cls-7" d="M 291.4 177.6 h -38.7 L 135.4 63.7 h -103 L 2 33.2 h 144.8 l 72 72 l 0.1 -0.1 l 72.5 72.5 z"/>
  </g>
</svg>
