<svg id="Layer_1" data-name="Layer 1" xmlns="http://www.w3.org/2000/svg" viewBox="0 0 404.89 179.61"  >
  <defs>
    <style>
      .cls-1{fill:url(#radial-gradient)}.cls-2{fill:url(#linear-gradient)}.cls-3{fill:url(#radial-gradient-2)}.cls-4{fill:url(#linear-gradient-2)}.cls-5{fill:url(#linear-gradient-3)}
    </style>
    <radialGradient id="radial-gradient" cx="125.57" cy="125.99" r="66.53" gradientUnits="userSpaceOnUse">
      <stop offset="0" stop-color="#05658c"/>
      <stop offset="1" stop-color="#0f2f47"/>
    </radialGradient>
    <linearGradient id="linear-gradient" x1="20.73" y1="131.38" x2="274.63" y2="131.38" gradientUnits="userSpaceOnUse">
      <stop offset="0" stop-color="#abca3d"/>
      <stop offset=".79" stop-color="#248235"/>
    </linearGradient>
    <radialGradient id="radial-gradient-2" cx="300.85" cy="53.54" r="81.21" gradientUnits="userSpaceOnUse">
      <stop offset="0" stop-color="#c5d1d7"/>
      <stop offset="1" stop-color="#7a8f9b"/>
    </radialGradient>
    <linearGradient id="linear-gradient-2" x1="280.36" y1="170.28" x2="310.29" y2="82.47" gradientUnits="userSpaceOnUse">
      <stop offset="0" stop-color="#0f2f47"/>
      <stop offset="1" stop-color="#05658c"/>
    </linearGradient>
    <linearGradient id="linear-gradient-3" x1="2" y1="105.41" x2="291.43" y2="105.41" gradientUnits="userSpaceOnUse">
      <stop offset="0" stop-color="#abca3d"/>
      <stop offset="1" stop-color="#248235"/>
    </linearGradient>
  </defs>
  <path class="cls-1" d="M 75.2 107 h 42.1 l 67.7 67.7 l 21.1 -21.1 l -76.3 -76.3 H 45.1 l 30.1 29.8 z"/>
  <path class="cls-2" d="M 239.7 85.2 l 38.7 -0.1 v 0 h 14.1 v 3.2 h 0 v 10.8 h -25.6 v -0.1 l -80.4 78.5 h -39.9 l 93.2 -92.4 z"/>
  <path class="cls-3" d="M 403.6 104.9 h -41.2 l -20.8 -20.8 l -11.2 11.2 C 326.2 91 321.1 87.6 315.5 85.4 C 311.7 83.9 307.7 82.8 303.6 82.2 c -0.2 0 -0.4 -0.1 -0.6 -0.1 c -0.6 -0.1 -1.1 -0.2 -1.6 -0.3 c -1.2 -0.2 -2.3 -0.4 -3.5 -0.5 l -37 -37 l -41 41 l -21.7 -21.7 l 61.5 -61.5 l 62.3 62.3 l 20.6 -20.6 z"/>
  <path class="cls-4" d="M 334 157.6 l -5 5.6 A 41.4 41.4 0 0 1 313.6 174 a 50.4 50.4 0 0 1 -19.1 3.6 a 49.2 49.2 0 0 1 -24.1 -6 A 44.4 44.4 0 0 1 253.3 155 a 48 48 0 0 1 0 -47.3 a 44.3 44.3 0 0 1 17.2 -16.6 a 49.6 49.6 0 0 1 24.1 -6 a 50.4 50.4 0 0 1 19 3.5 a 40.7 40.7 0 0 1 14 9.4 l -17.9 17.9 a 20.1 20.1 0 0 0 -14.7 -5.7 a 22.6 22.6 0 0 0 -11.3 2.8 a 19.4 19.4 0 0 0 -7.6 7.4 a 22.7 22.7 0 0 0 0 21.7 a 19.3 19.3 0 0 0 7.6 7.4 a 22.6 22.6 0 0 0 11.3 2.8 a 20.3 20.3 0 0 0 15.4 -6.6 l 5.4 -5.7 z"/>
  <path class="cls-5" d="M 291.4 177.6 h -38.7 L 135.4 63.7 h -103 L 2 33.2 h 144.8 l 72 72 l 0.1 -0.1 l 72.5 72.5 z"/>
</svg>
